<?xml version="1.0" standalone="no"?>
<!DOCTYPE svg PUBLIC "-//W3C//DTD SVG 20010904//EN"
 "http://www.w3.org/TR/2001/REC-SVG-20010904/DTD/svg10.dtd">
<svg version="1.0" xmlns="http://www.w3.org/2000/svg"
 width="814.000000pt" height="814.000000pt" viewBox="0 0 814.000000 814.000000"
 preserveAspectRatio="xMidYMid meet">
<metadata>
Created by potrace 1.11, written by Peter Selinger 2001-2013
</metadata>
<g transform="translate(0.000000,814.000000) scale(0.100000,-0.100000)"
fill="#000000" stroke="none">
<path d="M3898 8135 c-2 -2 -52 -6 -113 -9 -60 -4 -123 -9 -140 -11 -290 -40
-401 -63 -588 -119 -432 -129 -840 -387 -1078 -682 -57 -71 -142 -207 -185
-299 -40 -87 -98 -243 -108 -295 -3 -14 -12 -56 -20 -95 -13 -62 -19 -105 -32
-220 -5 -49 -4 -326 1 -375 34 -287 125 -551 271 -780 111 -174 310 -394 476
-527 40 -32 75 -60 78 -64 10 -11 177 -126 255 -175 198 -125 420 -239 700
-359 99 -42 203 -87 230 -100 28 -12 73 -33 100 -45 279 -126 573 -288 721
-398 194 -144 316 -337 351 -557 19 -120 1 -383 -28 -401 -5 -3 -9 -12 -9 -21
0 -21 -62 -119 -102 -164 -119 -129 -314 -207 -591 -236 -133 -13 -405 -7
-547 12 -284 38 -529 110 -777 225 -130 61 -312 170 -433 259 -52 38 -98 66
-102 63 -3 -4 -27 -54 -53 -112 -26 -58 -60 -133 -76 -168 -16 -35 -29 -65
-29 -68 0 -2 -13 -32 -29 -66 -16 -35 -75 -166 -131 -293 -89 -201 -122 -276
-161 -360 -5 -11 -29 -65 -53 -120 l-44 -100 165 -83 c483 -243 832 -371 1158
-426 115 -19 145 -23 315 -41 226 -24 949 -24 1022 -1 7 3 44 7 82 10 59 5
193 25 276 42 14 3 39 7 55 10 94 16 321 83 460 135 364 137 698 367 929 639
57 67 159 224 204 315 36 71 100 223 106 250 2 6 9 30 16 55 16 55 14 43 39
165 11 55 23 123 25 150 3 28 8 75 12 105 7 66 7 313 0 390 -5 55 -16 142 -21
170 -29 155 -42 212 -75 313 -134 407 -381 723 -786 1003 -82 57 -80 56 -210
133 -186 110 -381 202 -759 356 -352 144 -708 307 -875 401 -230 130 -379 279
-440 439 -25 66 -35 224 -19 306 22 114 24 119 66 207 61 128 197 243 341 288
50 16 58 18 137 34 47 9 369 7 445 -4 19 -2 80 -7 135 -11 172 -10 352 -30
456 -50 151 -29 340 -112 458 -201 40 -30 76 -54 80 -54 4 0 36 42 70 93 254
374 553 801 594 845 l22 24 -76 71 c-235 223 -429 350 -654 426 -86 29 -261
74 -335 86 -19 3 -60 10 -90 15 -30 5 -77 11 -105 14 -27 3 -70 8 -94 11 -54
6 -128 12 -251 21 -91 6 -627 13 -632 9z"/>
<path d="M1075 163 l0 -158 2995 -3 2995 -2 0 157 0 158 -2995 3 -2995 2 0
-157z"/>
</g>
</svg>
