<?xml version="1.0" encoding="UTF-8" standalone="no"?>
<svg width="782px" height="166px" viewBox="0 0 782 166" version="1.1" xmlns="http://www.w3.org/2000/svg" xmlns:xlink="http://www.w3.org/1999/xlink">
    <!-- Generator: Sketch 39.1 (31720) - http://www.bohemiancoding.com/sketch -->
    <title>Slice 1</title>
    <desc>Created with Sketch.</desc>
    <defs></defs>
    <g id="Page-1" stroke="none" stroke-width="1" fill="none" fill-rule="evenodd">
        <g id="staticweblogo" fill="#3A5C78">
            <g id="Group" transform="translate(414.000000, 0.000000)">
                <path d="M167.1,47.8 L141.3,47.8 L116.4,116.7 L89.9,53 C89.9,53 88.6,49.4 83.8,49.4 C79.4,49.4 77.9,53.1 77.9,53.1 L51,116.3 L28.2,47.8 L0.6,47.8 L41.4,159.7 C41.4,159.7 42.7,164.6 48,164.6 C53.4,164.6 55.3,159.4 55.3,159.4 L83.6,94.7 L112.3,160 C112.3,160 114.4,164.8 119.3,164.6 C123.6,164.5 125.7,160.2 125.7,160.2 L167.1,47.8 L167.1,47.8 Z" id="Shape"></path>
                <path d="M258.7,78.2 C256.6,72.3 252.7,67.2 248,62.6 C238.2,52.9 225.1,48 208.8,48 C193.5,48 180.4,53.5 169.5,64.4 C167.7,66.2 165.3,68.7 162.8,72.4 C160.8,78.5 155.8,92.6 153.9,97.8 C153.3,101.1 153.1,103.7 153.1,107.3 C153.1,125.2 158.1,139.2 168,149.3 C178,159.3 191.5,164.3 208.6,164.3 C226.9,164.3 240.7,160.6 249.9,153.1 L239.7,133.1 C233.5,139.3 224.4,142.4 212.5,142.4 C202.9,142.4 195.3,139.9 189.7,135 C184,130 181,123.1 180.5,114.2 L258.9,114.2 C258.9,107.1 258.7,94.7 258.7,78.2 L258.7,78.2 Z M209.2,70 C225.5,70 234.6,78.2 236.4,94.6 L181.3,94.6 C185,78.2 194.3,70 209.2,70 L209.2,70 L209.2,70 Z" id="Shape"></path>
                <path d="M311,163.3 L311,163.3 C328.3,163.3 342,157.8 352.2,146.9 C362.3,136 367.4,121.1 367.4,102.3 C367.4,86.1 362.4,72.8 352.3,62.4 C342.2,52 329,46.9 312.6,46.9 C304.4,46.9 296.7,49 289.8,53.3 L289.8,0.9 L263.6,7.2 L263.6,163.3 L278.4,163.3 L311,163.3 Z M307.4,69.1 C329.2,69.1 340.1,80.5 340.1,103.3 C340.1,116.5 337.5,126.1 332.2,132.1 C326.9,138.1 318,141.1 305.3,141.1 C298.7,141.1 293.5,138.8 289.7,134.3 L289.7,75.7 C293.8,71.3 299.7,69.1 307.4,69.1 L307.4,69.1 L307.4,69.1 Z" id="Shape"></path>
            </g>
            <g id="Group" transform="translate(0.000000, 2.000000)">
                <path d="M214,159.3 C217.1,162.2 220.6,163.6 224.4,163.6 C227.9,163.6 231,163.2 233.7,162.3 C236.4,161.4 238.5,159.2 240.7,155.3 C235,150.6 231.8,141.5 231.8,126.2 L231.8,101.6 C231.8,79.3 227.7,64.2 219.6,56.2 C211.4,48.2 198.6,44.2 181,44.2 C168.2,44.2 158.5,46.1 149.2,50.5 L156,68.9 C162.6,66.5 169,66.6 179.1,66.6 C196.2,66.6 204.8,73.4 204.8,86.9 C200.5,85.8 196.8,85.3 193.6,85.3 C175.2,85.3 161,89.1 151,96.6 C141,104.1 136,114.5 136,127.9 C136,139.3 139.5,148.1 146.6,154.3 C153.7,160.5 163.4,163.6 175.8,163.6 C182.4,163.6 188.7,162.3 194.8,159.8 C200.9,157.3 205.1,154 207.5,150 C208.9,153.4 211,156.5 214,159.3 L214,159.3 Z M205.2,118.1 C205.2,134.2 197.1,142.3 181,142.3 C169,142.3 163.1,137.1 163.1,126.8 C163.1,112.9 173.7,106 194.9,106 C197.2,106 200.6,106.5 205.2,107.4 L205.2,118.1 L205.2,118.1 Z" id="Shape"></path>
                <path d="M237.8,126.3 C237.8,138.3 240.9,147.5 247,154 C253.2,160.5 262,163.7 273.4,163.7 C284.9,163.7 293.8,162.6 300,160.5 L300,135.8 C294.4,139.3 288.4,141.1 281.9,141.1 C275.5,141.1 270.9,139.4 268.4,136 C265.8,132.6 264.5,126.8 264.5,118.5 L264.5,68 L296.1,68 L289.3,46.4 L264.5,46.4 L264.5,13.1 L237.8,23 L237.8,46.4 L224.5,46.4 L224.5,52.2 C227.1,54.4 231.8,63.2 233,68 L237.8,68 L237.8,126.3 L237.8,126.3 Z" id="Shape"></path>
                <path d="M309.7,5.5 C306.7,8.5 305.1,12.2 305.1,16.5 C305.1,20.8 306.6,24.5 309.7,27.5 C312.7,30.5 316.4,32.1 320.7,32.1 C325,32.1 328.7,30.6 331.7,27.5 C334.7,24.5 336.3,20.8 336.3,16.5 C336.3,12.2 334.8,8.5 331.7,5.5 C328.7,2.5 325,0.9 320.7,0.9 C316.4,0.9 312.8,2.4 309.7,5.5 L309.7,5.5 Z M334.1,160.6 L334.1,45.5 L295.6,45.5 L302.4,67.5 L306.9,67.5 L306.9,160.6 L334.1,160.6 L334.1,160.6 Z" id="Shape"></path>
                <path d="M398.5,43.4 C379.1,43.4 363.8,49 352.5,60.2 C345.9,66.8 341.2,74.6 338.5,83.6 C338.5,90.3 338.8,123.6 338.9,126.9 C341.1,135 345.5,141.7 351.1,147.3 C361.4,157.7 375.4,162.8 393.2,162.8 C401.2,162.8 408,162.2 413.9,160.9 C419.7,159.6 426.6,156.5 434.4,151.7 L426.3,128.8 C418.1,137.1 408.2,140.4 398.2,140.4 C375.2,140.4 363.7,128.3 363.7,104.2 C363.7,92.2 366.7,82.9 372.6,76.1 C378.5,69.3 386.5,65.9 396.7,65.9 C407.3,65.9 412.1,68.7 418.5,71.4 L410,46.4 C406.2,44.3 403.1,43.5 398.5,43.4 L398.5,43.4 L398.5,43.4 Z" id="Shape"></path>
                <path d="M18.6,161.9 C23.2,163.1 29.3,163.8 37,163.8 C50.6,163.8 61.3,160.7 69.2,154.6 C77.1,148.5 81,140.1 81,129.5 C81,121.5 78.8,114.7 74.4,109.1 C70,103.5 62.7,98.7 52.7,94.7 C42.6,90.7 36.1,87.6 33,85.2 C29.9,82.8 28.4,80.2 28.4,77.3 C28.4,69.9 33.1,65.4 42.4,66.2 C52.6,67 57.5,66.7 63.4,71.7 C63.4,71.7 72.7,57.9 74.6,55.7 C71.1,52.5 70.6,51.7 66.3,49.2 C61.1,46.3 52.8,45 40.9,45 C29.1,45 19.5,47.8 11.9,53.3 C4.3,58.8 0.6,66.6 0.6,76.5 C0.6,91.3 10.5,102.8 30.2,111 C39.3,114.8 45.4,118.1 48.5,120.8 C51.6,123.6 53.2,127.2 53.2,131.5 C53.2,138.9 48,142.6 37.6,142.6 C27.5,142.6 18.5,139.4 10.5,133.1 L1,154.4 C8.1,158.1 14,160.6 18.6,161.9 L18.6,161.9 Z" id="Shape"></path>
                <path d="M86.2,126.3 C86.2,138.3 89.3,147.5 95.4,154 C101.6,160.5 110.4,163.7 121.8,163.7 C133.3,163.7 138.6,162.7 145,159.4 C145,159.4 140.1,156 137.1,151 C134.9,147.2 133.1,140.3 133.1,140.3 C133.1,140.3 130.9,140.9 128.8,140.9 C122.4,140.9 119.5,139.2 116.9,135.8 C114.3,132.4 113,126.6 113,118.3 L113,68 L144.6,68 L137.8,46.4 L113,46.4 L113,13.1 L86.2,23 L86.2,46.4 C86.2,46.4 73.4,46.5 70.1,46.6 C72.9,48 76.9,51.7 79.9,55.1 C77.7,58.2 71.7,67.5 71.1,68.1 L84,68.1 L86.2,68.1 L86.2,126.3 L86.2,126.3 Z" id="Shape"></path>
            </g>
        </g>
    </g>
</svg>